# xmcd
#
# Track frame offsets: 
#        150
#        15749
#        33779
#        49284
#        66891
#        87717
#        102410
#        124611
#        141150
#        162634
#        180300
#        199470
#        212426
#
# Disc length: 3106 seconds
#
# Revision: 1
# Processed by: cddbd v1.5.2PL0 Copyright (c) Steve Scherf et al.
# Submitted via: ExactAudioCopy v1.3
#
DISCID=bb0c200d
DTITLE=Sara Evans - Real Fine Place
DYEAR=2005
DGENRE=Country
TTITLE0=Coalmine
TTITLE1=A Real Fine Place To Start
TTITLE2=Cheatin'
TTITLE3=New Home Town
TTITLE4=You'll Always Be My Baby
TTITLE5=Supernatural
TTITLE6=Roll Me Back In Time
TTITLE7=The Secrets That We Keep
TTITLE8=Bible Song
TTITLE9=Tell Me
TTITLE10=Missing Missouri
TTITLE11=Momma's Night Out
TTITLE12=These Four Walls
EXTD=
EXTT0=
EXTT1=
EXTT2=
EXTT3=
EXTT4=
EXTT5=
EXTT6=
EXTT7=
EXTT8=
EXTT9=
EXTT10=
EXTT11=
EXTT12=
PLAYORDER=
